<?xml version="1.0" encoding="UTF-8"?>
<svg version="1.0" xmlns="http://www.w3.org/2000/svg" xmlns:xlink="http://www.w3.org/1999/xlink" width="360" height="360">
	<rect width="360" height="360" fill="#c8100b"/>
	<g fill="#f8c420">
		<rect y="144" width="360" height="72"/>
		<rect x="144" width="72" height="360"/>
		<path id="p" d="M 283.315,27.378 c -3.809,1.597 -11.548,1.597 -15.359,0 c -4.589,-.269 -9.061,-.931 -13.441,-1.921 c -.909,.183 -2.824,-.567 -2.879,.961 v 92.16 c .053,1.527 1.97,.777 2.879,.959 c 7.188,-1.24 14.4,-2.394 22.081,-1.92 c 5.224,-.037 10.501,-.279 15.36,.961 c 15.465,10.693 34.838,-3.515 33.6,-21.121 c -3.758,-12.777 -19.363,-21.858 -31.92,-16.56 c -8.043,2.913 -10.502,7.935 0,8.16 c 13.161,8.735 -1.747,26.467 -13.921,18.72 c -13.431,-8.11 -12.661,-29.77 2.641,-35.28 c -23.933,-6.693 -8.057,-49.458 13.68,-32.88 c 3.183,2.52 2.946,6.9 2.4,10.561 c -2.027,5.917 -8.753,6.65 -13.2,7.92 c 9.573,13.449 31.911,7.942 38.16,-6 C 332.349,26.916 301.978,17.086 283.315,27.378"/>
		<use xlink:href="#p" transform="translate(360) scale(-1,1)"/>
		<use xlink:href="#p" y="216"/>
		<use xlink:href="#p" y="216" transform="translate(360) scale(-1,1)"/>
	</g>
</svg>